<mxfile host="app.diagrams.net" agent="Mozilla/5.0 (Macintosh; Intel Mac OS X 10_15_7) AppleWebKit/537.36 (KHTML, like Gecko) Chrome/134.0.0.0 Safari/537.36" version="26.1.0" pages="2">
  <diagram name="Page-1" id="Q8cW6PJ652iNcABxHAxY">
    <mxGraphModel dx="1545" dy="445" grid="1" gridSize="10" guides="1" tooltips="1" connect="1" arrows="1" fold="1" page="1" pageScale="1" pageWidth="850" pageHeight="1100" math="0" shadow="0">
      <root>
        <mxCell id="0" />
        <mxCell id="1" parent="0" />
        <mxCell id="T8bqsoCBG3DIesML2O-u-8" style="edgeStyle=orthogonalEdgeStyle;rounded=0;orthogonalLoop=1;jettySize=auto;html=1;entryX=0;entryY=0.5;entryDx=0;entryDy=0;" edge="1" parent="1" source="T8bqsoCBG3DIesML2O-u-1" target="T8bqsoCBG3DIesML2O-u-7">
          <mxGeometry relative="1" as="geometry" />
        </mxCell>
        <mxCell id="T8bqsoCBG3DIesML2O-u-1" value="" style="rounded=0;whiteSpace=wrap;html=1;" vertex="1" parent="1">
          <mxGeometry x="-10" y="200" width="150" height="140" as="geometry" />
        </mxCell>
        <mxCell id="T8bqsoCBG3DIesML2O-u-2" value="" style="sketch=0;points=[[0,0,0],[0.25,0,0],[0.5,0,0],[0.75,0,0],[1,0,0],[0,1,0],[0.25,1,0],[0.5,1,0],[0.75,1,0],[1,1,0],[0,0.25,0],[0,0.5,0],[0,0.75,0],[1,0.25,0],[1,0.5,0],[1,0.75,0]];outlineConnect=0;fontColor=#232F3E;fillColor=#7AA116;strokeColor=#ffffff;dashed=0;verticalLabelPosition=bottom;verticalAlign=top;align=center;html=1;fontSize=12;fontStyle=0;aspect=fixed;shape=mxgraph.aws4.resourceIcon;resIcon=mxgraph.aws4.s3;" vertex="1" parent="1">
          <mxGeometry y="210" width="60" height="60" as="geometry" />
        </mxCell>
        <mxCell id="T8bqsoCBG3DIesML2O-u-3" value="DATA STORE&lt;div&gt;&lt;br&gt;&lt;/div&gt;" style="text;html=1;align=center;verticalAlign=middle;whiteSpace=wrap;rounded=0;" vertex="1" parent="1">
          <mxGeometry x="35" y="370" width="60" height="30" as="geometry" />
        </mxCell>
        <mxCell id="T8bqsoCBG3DIesML2O-u-4" value="" style="rounded=0;whiteSpace=wrap;html=1;" vertex="1" parent="1">
          <mxGeometry x="250" y="110" width="1010" height="320" as="geometry" />
        </mxCell>
        <mxCell id="T8bqsoCBG3DIesML2O-u-5" value="AWS/Databricks" style="text;html=1;align=center;verticalAlign=middle;whiteSpace=wrap;rounded=0;" vertex="1" parent="1">
          <mxGeometry x="270" y="120" width="60" height="30" as="geometry" />
        </mxCell>
        <mxCell id="T8bqsoCBG3DIesML2O-u-6" value="Silver Layer/Landing Zone" style="rounded=0;whiteSpace=wrap;html=1;" vertex="1" parent="1">
          <mxGeometry x="350" y="240" width="150" height="80" as="geometry" />
        </mxCell>
        <mxCell id="T8bqsoCBG3DIesML2O-u-9" style="edgeStyle=orthogonalEdgeStyle;rounded=0;orthogonalLoop=1;jettySize=auto;html=1;entryX=0;entryY=0.5;entryDx=0;entryDy=0;" edge="1" parent="1" source="T8bqsoCBG3DIesML2O-u-7" target="T8bqsoCBG3DIesML2O-u-6">
          <mxGeometry relative="1" as="geometry" />
        </mxCell>
        <mxCell id="T8bqsoCBG3DIesML2O-u-7" value="Auto Loader" style="rounded=0;whiteSpace=wrap;html=1;" vertex="1" parent="1">
          <mxGeometry x="260" y="250" width="60" height="60" as="geometry" />
        </mxCell>
        <mxCell id="T8bqsoCBG3DIesML2O-u-10" value="Bronze&lt;div&gt;(user id, phone No, First, lastname, experience Json)&lt;/div&gt;" style="rounded=0;whiteSpace=wrap;html=1;" vertex="1" parent="1">
          <mxGeometry x="570" y="220" width="150" height="100" as="geometry" />
        </mxCell>
        <mxCell id="T8bqsoCBG3DIesML2O-u-11" value="Spark ; Map of Relations. Write back to the Table." style="rounded=0;whiteSpace=wrap;html=1;" vertex="1" parent="1">
          <mxGeometry x="790" y="195" width="310" height="150" as="geometry" />
        </mxCell>
        <mxCell id="T8bqsoCBG3DIesML2O-u-12" value="Experiences" style="rounded=0;whiteSpace=wrap;html=1;" vertex="1" parent="1">
          <mxGeometry x="610" y="345" width="120" height="60" as="geometry" />
        </mxCell>
        <mxCell id="T8bqsoCBG3DIesML2O-u-15" style="edgeStyle=orthogonalEdgeStyle;rounded=0;orthogonalLoop=1;jettySize=auto;html=1;entryX=1;entryY=0.5;entryDx=0;entryDy=0;" edge="1" parent="1" source="T8bqsoCBG3DIesML2O-u-13" target="T8bqsoCBG3DIesML2O-u-11">
          <mxGeometry relative="1" as="geometry" />
        </mxCell>
        <mxCell id="T8bqsoCBG3DIesML2O-u-13" value="API expose (Query)" style="rounded=0;whiteSpace=wrap;html=1;" vertex="1" parent="1">
          <mxGeometry x="1130" y="140" width="120" height="60" as="geometry" />
        </mxCell>
        <mxCell id="T8bqsoCBG3DIesML2O-u-14" value="" style="endArrow=classic;html=1;rounded=0;entryX=1;entryY=0.5;entryDx=0;entryDy=0;exitX=0;exitY=0.75;exitDx=0;exitDy=0;" edge="1" parent="1" source="T8bqsoCBG3DIesML2O-u-16" target="T8bqsoCBG3DIesML2O-u-13">
          <mxGeometry width="50" height="50" relative="1" as="geometry">
            <mxPoint x="1310" y="100" as="sourcePoint" />
            <mxPoint x="1360" y="50" as="targetPoint" />
          </mxGeometry>
        </mxCell>
        <mxCell id="T8bqsoCBG3DIesML2O-u-16" value="UI" style="rounded=0;whiteSpace=wrap;html=1;" vertex="1" parent="1">
          <mxGeometry x="1490" y="30" width="120" height="60" as="geometry" />
        </mxCell>
        <mxCell id="T8bqsoCBG3DIesML2O-u-19" style="edgeStyle=orthogonalEdgeStyle;rounded=0;orthogonalLoop=1;jettySize=auto;html=1;entryX=1;entryY=0.75;entryDx=0;entryDy=0;" edge="1" parent="1" source="T8bqsoCBG3DIesML2O-u-17" target="T8bqsoCBG3DIesML2O-u-11">
          <mxGeometry relative="1" as="geometry" />
        </mxCell>
        <mxCell id="T8bqsoCBG3DIesML2O-u-17" value="MicroServer" style="rounded=0;whiteSpace=wrap;html=1;" vertex="1" parent="1">
          <mxGeometry x="1370" y="240" width="120" height="60" as="geometry" />
        </mxCell>
        <mxCell id="T8bqsoCBG3DIesML2O-u-18" style="edgeStyle=orthogonalEdgeStyle;rounded=0;orthogonalLoop=1;jettySize=auto;html=1;entryX=0.638;entryY=0.02;entryDx=0;entryDy=0;entryPerimeter=0;" edge="1" parent="1" source="T8bqsoCBG3DIesML2O-u-16" target="T8bqsoCBG3DIesML2O-u-17">
          <mxGeometry relative="1" as="geometry" />
        </mxCell>
      </root>
    </mxGraphModel>
  </diagram>
  <diagram id="act5kdvrnMTu4SL9ac3J" name="Page-2">
    <mxGraphModel dx="2289" dy="795" grid="1" gridSize="10" guides="1" tooltips="1" connect="1" arrows="1" fold="1" page="1" pageScale="1" pageWidth="850" pageHeight="1100" math="0" shadow="0">
      <root>
        <mxCell id="0" />
        <mxCell id="1" parent="0" />
        <mxCell id="r7ViO80HpjsP8xcVfgHy-1" value="" style="rounded=0;whiteSpace=wrap;html=1;fillColor=#ffe6cc;strokeColor=#d79b00;" vertex="1" parent="1">
          <mxGeometry x="120" y="100" width="1810" height="460" as="geometry" />
        </mxCell>
        <mxCell id="r7ViO80HpjsP8xcVfgHy-2" value="AWS Cloud" style="sketch=0;outlineConnect=0;fontColor=#232F3E;gradientColor=none;strokeColor=#232F3E;fillColor=#ffffff;dashed=0;verticalLabelPosition=bottom;verticalAlign=top;align=center;html=1;fontSize=12;fontStyle=0;aspect=fixed;shape=mxgraph.aws4.resourceIcon;resIcon=mxgraph.aws4.aws_cloud;" vertex="1" parent="1">
          <mxGeometry x="150" y="130" width="60" height="60" as="geometry" />
        </mxCell>
        <mxCell id="r7ViO80HpjsP8xcVfgHy-11" value="" style="edgeStyle=orthogonalEdgeStyle;rounded=0;orthogonalLoop=1;jettySize=auto;html=1;" edge="1" parent="1" source="r7ViO80HpjsP8xcVfgHy-4" target="r7ViO80HpjsP8xcVfgHy-9">
          <mxGeometry relative="1" as="geometry">
            <mxPoint x="150" y="335" as="targetPoint" />
          </mxGeometry>
        </mxCell>
        <mxCell id="r7ViO80HpjsP8xcVfgHy-4" value="" style="verticalLabelPosition=bottom;html=1;verticalAlign=top;align=center;strokeColor=none;fillColor=#00BEF2;shape=mxgraph.azure.computer;pointerEvents=1;" vertex="1" parent="1">
          <mxGeometry x="-100" y="250" width="50" height="45" as="geometry" />
        </mxCell>
        <mxCell id="r7ViO80HpjsP8xcVfgHy-6" style="edgeStyle=orthogonalEdgeStyle;rounded=0;orthogonalLoop=1;jettySize=auto;html=1;" edge="1" parent="1" source="r7ViO80HpjsP8xcVfgHy-5">
          <mxGeometry relative="1" as="geometry">
            <mxPoint x="-110" y="270" as="targetPoint" />
          </mxGeometry>
        </mxCell>
        <mxCell id="r7ViO80HpjsP8xcVfgHy-5" value="Actor" style="shape=umlActor;verticalLabelPosition=bottom;verticalAlign=top;html=1;outlineConnect=0;" vertex="1" parent="1">
          <mxGeometry x="-230" y="243" width="30" height="60" as="geometry" />
        </mxCell>
        <mxCell id="r7ViO80HpjsP8xcVfgHy-7" value="" style="sketch=0;points=[[0,0,0],[0.25,0,0],[0.5,0,0],[0.75,0,0],[1,0,0],[0,1,0],[0.25,1,0],[0.5,1,0],[0.75,1,0],[1,1,0],[0,0.25,0],[0,0.5,0],[0,0.75,0],[1,0.25,0],[1,0.5,0],[1,0.75,0]];outlineConnect=0;fontColor=#232F3E;fillColor=#8C4FFF;strokeColor=#ffffff;dashed=0;verticalLabelPosition=bottom;verticalAlign=top;align=center;html=1;fontSize=12;fontStyle=0;aspect=fixed;shape=mxgraph.aws4.resourceIcon;resIcon=mxgraph.aws4.route_53;" vertex="1" parent="1">
          <mxGeometry x="150" y="400" width="78" height="78" as="geometry" />
        </mxCell>
        <mxCell id="r7ViO80HpjsP8xcVfgHy-8" style="edgeStyle=orthogonalEdgeStyle;rounded=0;orthogonalLoop=1;jettySize=auto;html=1;entryX=0;entryY=0.75;entryDx=0;entryDy=0;entryPerimeter=0;" edge="1" parent="1" source="r7ViO80HpjsP8xcVfgHy-4" target="r7ViO80HpjsP8xcVfgHy-7">
          <mxGeometry relative="1" as="geometry">
            <Array as="points">
              <mxPoint x="-75" y="399" />
              <mxPoint x="55" y="399" />
            </Array>
          </mxGeometry>
        </mxCell>
        <mxCell id="r7ViO80HpjsP8xcVfgHy-9" value="" style="outlineConnect=0;dashed=0;verticalLabelPosition=bottom;verticalAlign=top;align=center;html=1;shape=mxgraph.aws3.application_load_balancer;fillColor=#F58534;gradientColor=none;" vertex="1" parent="1">
          <mxGeometry x="150" y="260" width="69" height="72" as="geometry" />
        </mxCell>
        <mxCell id="r7ViO80HpjsP8xcVfgHy-12" value="" style="outlineConnect=0;dashed=0;verticalLabelPosition=bottom;verticalAlign=top;align=center;html=1;shape=mxgraph.aws3.ec2;fillColor=#F58534;gradientColor=none;" vertex="1" parent="1">
          <mxGeometry x="510" y="190" width="76.5" height="93" as="geometry" />
        </mxCell>
        <mxCell id="r7ViO80HpjsP8xcVfgHy-13" style="edgeStyle=orthogonalEdgeStyle;rounded=0;orthogonalLoop=1;jettySize=auto;html=1;" edge="1" parent="1" source="r7ViO80HpjsP8xcVfgHy-9" target="r7ViO80HpjsP8xcVfgHy-15">
          <mxGeometry relative="1" as="geometry">
            <mxPoint x="290" y="296" as="targetPoint" />
          </mxGeometry>
        </mxCell>
        <mxCell id="r7ViO80HpjsP8xcVfgHy-14" value="VPC" style="sketch=0;outlineConnect=0;gradientColor=none;html=1;whiteSpace=wrap;fontSize=12;fontStyle=0;shape=mxgraph.aws4.group;grIcon=mxgraph.aws4.group_vpc;strokeColor=#879196;fillColor=none;verticalAlign=top;align=left;spacingLeft=30;fontColor=#879196;dashed=0;" vertex="1" parent="1">
          <mxGeometry x="480" y="130" width="550" height="185" as="geometry" />
        </mxCell>
        <mxCell id="r7ViO80HpjsP8xcVfgHy-17" style="edgeStyle=orthogonalEdgeStyle;rounded=0;orthogonalLoop=1;jettySize=auto;html=1;" edge="1" parent="1" source="r7ViO80HpjsP8xcVfgHy-15" target="r7ViO80HpjsP8xcVfgHy-14">
          <mxGeometry relative="1" as="geometry" />
        </mxCell>
        <mxCell id="r7ViO80HpjsP8xcVfgHy-18" style="edgeStyle=orthogonalEdgeStyle;rounded=0;orthogonalLoop=1;jettySize=auto;html=1;" edge="1" parent="1" source="r7ViO80HpjsP8xcVfgHy-15">
          <mxGeometry relative="1" as="geometry">
            <mxPoint x="480" y="480" as="targetPoint" />
            <Array as="points">
              <mxPoint x="369" y="480" />
            </Array>
          </mxGeometry>
        </mxCell>
        <mxCell id="r7ViO80HpjsP8xcVfgHy-15" value="" style="sketch=0;outlineConnect=0;fontColor=#232F3E;gradientColor=none;fillColor=#8C4FFF;strokeColor=none;dashed=0;verticalLabelPosition=bottom;verticalAlign=top;align=center;html=1;fontSize=12;fontStyle=0;aspect=fixed;pointerEvents=1;shape=mxgraph.aws4.customer_gateway;" vertex="1" parent="1">
          <mxGeometry x="347" y="303" width="43" height="43" as="geometry" />
        </mxCell>
        <mxCell id="r7ViO80HpjsP8xcVfgHy-19" value="" style="outlineConnect=0;dashed=0;verticalLabelPosition=bottom;verticalAlign=top;align=center;html=1;shape=mxgraph.aws3.application_load_balancer;fillColor=#F58534;gradientColor=none;" vertex="1" parent="1">
          <mxGeometry x="620" y="178" width="69" height="72" as="geometry" />
        </mxCell>
        <mxCell id="r7ViO80HpjsP8xcVfgHy-23" style="edgeStyle=orthogonalEdgeStyle;rounded=0;orthogonalLoop=1;jettySize=auto;html=1;entryX=0;entryY=0.5;entryDx=0;entryDy=0;" edge="1" parent="1" source="r7ViO80HpjsP8xcVfgHy-20" target="r7ViO80HpjsP8xcVfgHy-21">
          <mxGeometry relative="1" as="geometry" />
        </mxCell>
        <mxCell id="r7ViO80HpjsP8xcVfgHy-24" style="edgeStyle=orthogonalEdgeStyle;rounded=0;orthogonalLoop=1;jettySize=auto;html=1;" edge="1" parent="1" source="r7ViO80HpjsP8xcVfgHy-20" target="r7ViO80HpjsP8xcVfgHy-22">
          <mxGeometry relative="1" as="geometry" />
        </mxCell>
        <mxCell id="r7ViO80HpjsP8xcVfgHy-46" style="edgeStyle=orthogonalEdgeStyle;rounded=0;orthogonalLoop=1;jettySize=auto;html=1;entryX=0;entryY=0.5;entryDx=0;entryDy=0;" edge="1" parent="1" source="r7ViO80HpjsP8xcVfgHy-21" target="r7ViO80HpjsP8xcVfgHy-42">
          <mxGeometry relative="1" as="geometry" />
        </mxCell>
        <mxCell id="r7ViO80HpjsP8xcVfgHy-21" value="" style="image;aspect=fixed;perimeter=ellipsePerimeter;html=1;align=center;shadow=0;dashed=0;spacingTop=3;image=img/lib/active_directory/database_server.svg;" vertex="1" parent="1">
          <mxGeometry x="950" y="180" width="41" height="50" as="geometry" />
        </mxCell>
        <mxCell id="r7ViO80HpjsP8xcVfgHy-22" value="" style="outlineConnect=0;dashed=0;verticalLabelPosition=bottom;verticalAlign=top;align=center;html=1;shape=mxgraph.aws3.cache_node;fillColor=#2E73B8;gradientColor=none;" vertex="1" parent="1">
          <mxGeometry x="941" y="252" width="60" height="63" as="geometry" />
        </mxCell>
        <mxCell id="r7ViO80HpjsP8xcVfgHy-25" value="" style="outlineConnect=0;dashed=0;verticalLabelPosition=bottom;verticalAlign=top;align=center;html=1;shape=mxgraph.aws3.ec2;fillColor=#F58534;gradientColor=none;" vertex="1" parent="1">
          <mxGeometry x="519" y="412" width="76.5" height="93" as="geometry" />
        </mxCell>
        <mxCell id="r7ViO80HpjsP8xcVfgHy-26" value="VPC" style="sketch=0;outlineConnect=0;gradientColor=none;html=1;whiteSpace=wrap;fontSize=12;fontStyle=0;shape=mxgraph.aws4.group;grIcon=mxgraph.aws4.group_vpc;strokeColor=#879196;fillColor=none;verticalAlign=top;align=left;spacingLeft=30;fontColor=#879196;dashed=0;" vertex="1" parent="1">
          <mxGeometry x="479" y="352" width="550" height="185" as="geometry" />
        </mxCell>
        <mxCell id="r7ViO80HpjsP8xcVfgHy-27" value="" style="outlineConnect=0;dashed=0;verticalLabelPosition=bottom;verticalAlign=top;align=center;html=1;shape=mxgraph.aws3.application_load_balancer;fillColor=#F58534;gradientColor=none;" vertex="1" parent="1">
          <mxGeometry x="649" y="422.5" width="69" height="72" as="geometry" />
        </mxCell>
        <mxCell id="r7ViO80HpjsP8xcVfgHy-28" style="edgeStyle=orthogonalEdgeStyle;rounded=0;orthogonalLoop=1;jettySize=auto;html=1;entryX=0;entryY=0.5;entryDx=0;entryDy=0;" edge="1" parent="1" source="r7ViO80HpjsP8xcVfgHy-30" target="r7ViO80HpjsP8xcVfgHy-31">
          <mxGeometry relative="1" as="geometry" />
        </mxCell>
        <mxCell id="r7ViO80HpjsP8xcVfgHy-29" style="edgeStyle=orthogonalEdgeStyle;rounded=0;orthogonalLoop=1;jettySize=auto;html=1;" edge="1" parent="1" source="r7ViO80HpjsP8xcVfgHy-30" target="r7ViO80HpjsP8xcVfgHy-32">
          <mxGeometry relative="1" as="geometry" />
        </mxCell>
        <mxCell id="r7ViO80HpjsP8xcVfgHy-30" value="" style="outlineConnect=0;dashed=0;verticalLabelPosition=bottom;verticalAlign=top;align=center;html=1;shape=mxgraph.aws3.ec2;fillColor=#F58534;gradientColor=none;" vertex="1" parent="1">
          <mxGeometry x="739" y="412" width="76.5" height="93" as="geometry" />
        </mxCell>
        <mxCell id="r7ViO80HpjsP8xcVfgHy-31" value="" style="image;aspect=fixed;perimeter=ellipsePerimeter;html=1;align=center;shadow=0;dashed=0;spacingTop=3;image=img/lib/active_directory/database_server.svg;" vertex="1" parent="1">
          <mxGeometry x="959" y="402" width="41" height="50" as="geometry" />
        </mxCell>
        <mxCell id="r7ViO80HpjsP8xcVfgHy-32" value="" style="outlineConnect=0;dashed=0;verticalLabelPosition=bottom;verticalAlign=top;align=center;html=1;shape=mxgraph.aws3.cache_node;fillColor=#2E73B8;gradientColor=none;" vertex="1" parent="1">
          <mxGeometry x="950" y="474" width="60" height="63" as="geometry" />
        </mxCell>
        <mxCell id="r7ViO80HpjsP8xcVfgHy-33" value="Auto Scaling group" style="points=[[0,0],[0.25,0],[0.5,0],[0.75,0],[1,0],[1,0.25],[1,0.5],[1,0.75],[1,1],[0.75,1],[0.5,1],[0.25,1],[0,1],[0,0.75],[0,0.5],[0,0.25]];outlineConnect=0;gradientColor=none;html=1;whiteSpace=wrap;fontSize=12;fontStyle=0;container=1;pointerEvents=0;collapsible=0;recursiveResize=0;shape=mxgraph.aws4.groupCenter;grIcon=mxgraph.aws4.group_auto_scaling_group;grStroke=1;strokeColor=#D86613;fillColor=none;verticalAlign=top;align=center;fontColor=#D86613;dashed=1;spacingTop=25;" vertex="1" parent="1">
          <mxGeometry x="720" y="135.5" width="130" height="167.5" as="geometry" />
        </mxCell>
        <mxCell id="r7ViO80HpjsP8xcVfgHy-20" value="" style="outlineConnect=0;dashed=0;verticalLabelPosition=bottom;verticalAlign=top;align=center;html=1;shape=mxgraph.aws3.ec2;fillColor=#F58534;gradientColor=none;" vertex="1" parent="r7ViO80HpjsP8xcVfgHy-33">
          <mxGeometry x="42.25" y="47.5" width="37.75" height="32.5" as="geometry" />
        </mxCell>
        <mxCell id="r7ViO80HpjsP8xcVfgHy-40" value="" style="rounded=1;arcSize=10;dashed=0;fillColor=none;gradientColor=none;strokeWidth=2;" vertex="1" parent="1">
          <mxGeometry x="1210" y="180" width="610" height="200" as="geometry" />
        </mxCell>
        <mxCell id="r7ViO80HpjsP8xcVfgHy-41" value="" style="dashed=0;html=1;shape=mxgraph.aws3.virtual_private_cloud;fillColor=#F58536;gradientColor=none;dashed=0;" vertex="1" parent="1">
          <mxGeometry x="1230" y="160" width="52" height="36" as="geometry" />
        </mxCell>
        <mxCell id="r7ViO80HpjsP8xcVfgHy-51" style="edgeStyle=orthogonalEdgeStyle;rounded=0;orthogonalLoop=1;jettySize=auto;html=1;entryX=0;entryY=0.5;entryDx=0;entryDy=0;" edge="1" parent="1" source="r7ViO80HpjsP8xcVfgHy-42" target="r7ViO80HpjsP8xcVfgHy-48">
          <mxGeometry relative="1" as="geometry" />
        </mxCell>
        <mxCell id="r7ViO80HpjsP8xcVfgHy-42" value="" style="rounded=0;whiteSpace=wrap;html=1;" vertex="1" parent="1">
          <mxGeometry x="1275" y="218.5" width="120" height="130" as="geometry" />
        </mxCell>
        <mxCell id="r7ViO80HpjsP8xcVfgHy-43" value="SEED" style="rounded=0;whiteSpace=wrap;html=1;" vertex="1" parent="1">
          <mxGeometry x="1290" y="235" width="50" height="25" as="geometry" />
        </mxCell>
        <mxCell id="r7ViO80HpjsP8xcVfgHy-44" value="FEED" style="rounded=0;whiteSpace=wrap;html=1;" vertex="1" parent="1">
          <mxGeometry x="1290" y="278" width="50" height="25" as="geometry" />
        </mxCell>
        <mxCell id="r7ViO80HpjsP8xcVfgHy-45" value="Snapshot" style="rounded=0;whiteSpace=wrap;html=1;" vertex="1" parent="1">
          <mxGeometry x="1290" y="315" width="50" height="25" as="geometry" />
        </mxCell>
        <mxCell id="r7ViO80HpjsP8xcVfgHy-47" value="Unified" style="rounded=0;whiteSpace=wrap;html=1;" vertex="1" parent="1">
          <mxGeometry x="1350" y="266" width="40" height="35" as="geometry" />
        </mxCell>
        <mxCell id="r7ViO80HpjsP8xcVfgHy-52" style="edgeStyle=orthogonalEdgeStyle;rounded=0;orthogonalLoop=1;jettySize=auto;html=1;entryX=0;entryY=0.5;entryDx=0;entryDy=0;" edge="1" parent="1" source="r7ViO80HpjsP8xcVfgHy-48" target="r7ViO80HpjsP8xcVfgHy-49">
          <mxGeometry relative="1" as="geometry" />
        </mxCell>
        <mxCell id="r7ViO80HpjsP8xcVfgHy-48" value="Silver&lt;div&gt;&lt;br&gt;&lt;/div&gt;&lt;div&gt;consolidated, cleanup, lookup etc.,&lt;/div&gt;" style="rounded=0;whiteSpace=wrap;html=1;" vertex="1" parent="1">
          <mxGeometry x="1440" y="223" width="120" height="127" as="geometry" />
        </mxCell>
        <mxCell id="r7ViO80HpjsP8xcVfgHy-49" value="Gold layer&lt;div&gt;&lt;br&gt;&lt;div&gt;Data Model&lt;/div&gt;&lt;div&gt;SDC&amp;nbsp;&lt;/div&gt;&lt;div&gt;partition&lt;/div&gt;&lt;div&gt;aggregated&lt;/div&gt;&lt;div&gt;&lt;br&gt;&lt;/div&gt;&lt;/div&gt;" style="rounded=0;whiteSpace=wrap;html=1;" vertex="1" parent="1">
          <mxGeometry x="1630" y="221.5" width="120" height="127" as="geometry" />
        </mxCell>
        <mxCell id="r7ViO80HpjsP8xcVfgHy-50" value="" style="rounded=0;whiteSpace=wrap;html=1;" vertex="1" parent="1">
          <mxGeometry x="1670" y="435" width="200" height="125" as="geometry" />
        </mxCell>
      </root>
    </mxGraphModel>
  </diagram>
</mxfile>
